<?xml version="1.0" encoding="UTF-8" standalone="no"?>
<!-- Created with Inkscape (http://www.inkscape.org/) -->

<svg
   width="48.0px"
   height="48.0px"
   viewBox="0 0 48.0 48.0"
   version="1.1"
   id="SVGRoot"
   sodipodi:docname="a4m-icon.svg"
   inkscape:version="1.2.2 (b0a8486541, 2022-12-01)"
   xml:space="preserve"
   xmlns:inkscape="http://www.inkscape.org/namespaces/inkscape"
   xmlns:sodipodi="http://sodipodi.sourceforge.net/DTD/sodipodi-0.dtd"
   xmlns:xlink="http://www.w3.org/1999/xlink"
   xmlns="http://www.w3.org/2000/svg"
   xmlns:svg="http://www.w3.org/2000/svg"><sodipodi:namedview
     id="namedview1950"
     pagecolor="#09182b"
     bordercolor="#000000"
     borderopacity="0.25"
     inkscape:showpageshadow="2"
     inkscape:pageopacity="1"
     inkscape:pagecheckerboard="0"
     inkscape:deskcolor="#d1d1d1"
     inkscape:document-units="px"
     showgrid="false"
     inkscape:zoom="11.313709"
     inkscape:cx="13.169863"
     inkscape:cy="14.716659"
     inkscape:window-width="1920"
     inkscape:window-height="1019"
     inkscape:window-x="0"
     inkscape:window-y="27"
     inkscape:window-maximized="1"
     inkscape:current-layer="layer1"
     showguides="true"><inkscape:grid
       type="xygrid"
       id="grid1956" /></sodipodi:namedview><defs
     id="defs1945"><inkscape:path-effect
       effect="bool_op"
       operand-path="#g1423"
       id="path-effect2807"
       is_visible="true"
       lpeversion="1"
       operation="inters"
       swap-operands="true"
       filltype-this="nonzero"
       filter=""
       filltype-operand="positive" /><inkscape:path-effect
       effect="bool_op"
       operand-path="#rect2630"
       id="path-effect2791"
       is_visible="true"
       lpeversion="1"
       operation="diff"
       swap-operands="false"
       filltype-this="from-curve"
       filter=""
       filltype-operand="from-curve" /><filter
       id="selectable_hidder_filter"
       width="1"
       height="1"
       x="0"
       y="0"
       style="color-interpolation-filters:sRGB;"
       inkscape:label="LPE boolean visibility"><feComposite
         id="boolops_hidder_primitive"
         result="composite1"
         operator="arithmetic"
         in2="SourceGraphic"
         in="BackgroundImage" /></filter><inkscape:path-effect
       effect="bool_op"
       operand-path=""
       id="path-effect2776"
       is_visible="true"
       lpeversion="1"
       operation="union"
       swap-operands="false"
       filltype-this="from-curve"
       filter=""
       filltype-operand="from-curve" /><inkscape:path-effect
       effect="offset"
       id="path-effect2719"
       is_visible="true"
       lpeversion="1.2"
       linejoin_type="round"
       unit="mm"
       offset="2"
       miter_limit="0"
       attempt_force_join="false"
       update_on_knot_move="true" /><inkscape:path-effect
       effect="fill_between_strokes"
       id="path-effect2697"
       is_visible="true"
       lpeversion="1.2"
       linkedpath="#path1419"
       secondpath="#path1419"
       reversesecond="false"
       join="false"
       close="true" /><linearGradient
       inkscape:collect="always"
       id="linearGradient874"><stop
         style="stop-color:#3e80f3;stop-opacity:1;"
         offset="0.1529979"
         id="stop37758" /><stop
         style="stop-color:#45df97;stop-opacity:1;"
         offset="0.85893244"
         id="stop872" /></linearGradient><linearGradient
       inkscape:collect="always"
       xlink:href="#linearGradient874"
       id="linearGradient999"
       x1="0"
       y1="24"
       x2="48.000004"
       y2="24"
       gradientUnits="userSpaceOnUse" /><mask
       maskUnits="userSpaceOnUse"
       id="mask2878"><g
         id="g2886"
         class="UnoptimicedTransforms"><path
           id="path2880"
           style="fill:#ffffff;stroke-width:6.00001;stroke-linecap:round;stroke-linejoin:round"
           d="M 40.22139,2.1503133e-8 7.7689721,4.8144736e-8 C 7.9921044,0.18391442 8.2074411,0.37932843 8.4140625,0.5859375 c 5.1341415,5.134141 9.7736625,8.898958 13.7871095,11.6582035 0.534887,0.367734 1.083703,0.645195 1.626953,0.990234 C 28.660227,10.138942 34.014119,6.1577557 39.585938,0.5859375 39.794078,0.37779725 40.006063,0.18260113 40.22139,2.1503133e-8 Z"
           sodipodi:nodetypes="cccc"
           inkscape:path-effect="#path-effect2791"
           inkscape:original-d="M 0,0 H 48 L 24,24.000002 Z"
           class="UnoptimicedTransforms" /><path
           id="path2882"
           style="fill:#b42b6f;stroke-width:76.49;stroke-linecap:round;stroke-linejoin:round;filter:url(#selectable_hidder_filter)"
           d="m 44.059054,41.499996 c 0,-10.833334 0.107487,-17.720024 5.124166,-28.47005 A 7.5590551,7.5590551 0 0 0 36.988272,4.4882723 C 25.772829,15.703716 14.846458,20.607608 11.5,20.607608 M 4.5703125,2.3554688 A 7.5590551,7.5590551 0 0 0 -1.1835938,13.03125 c 2.6110228,5.595048 3.8576386,10.120902 4.4746094,14.351562 0.314204,2.154537 0.4781056,4.317998 0.5625,6.632813 0.086065,2.360632 0.087891,4.77695 0.087891,7.484375 a 7.5590551,7.5590551 0 0 0 11.1152348,6.669922 l 25,-13.333984 A 7.5590551,7.5590551 0 0 0 36.5,20.607422 c -1.590063,0 -8.200467,-2.418462 -13.998047,-6.404297 C 19.156094,11.902847 15.289408,8.7659695 11.011719,4.4882812 A 7.5590551,7.5590551 0 0 0 4.5703125,2.3554688 Z"
           inkscape:path-effect="#path-effect2697;#path-effect2719"
           inkscape:original-d="M 10.044318,-20.11105 H 37.955682 V -6.1553679 H 10.044318 Z"
           class="UnoptimicedTransforms" /><path
           d="m 9,44.999995 c 0,-13 0,-23 -7,-37.9999974 C 24.000002,28.999996 39.000001,28.999996 39.000001,28.999996 m -29.999999,0 c 0,0 15,0 36.999998,-21.9999984 C 39.000001,21.999995 39.000001,31.999995 39.000001,44.999995"
           style="fill:none;stroke:#ffffff;stroke-width:6.00001;stroke-linecap:round;stroke-linejoin:round;stroke-dasharray:none;stroke-opacity:1"
           id="path2884"
           class="UnoptimicedTransforms" /></g></mask></defs><g
     inkscape:label="Layer 1"
     inkscape:groupmode="layer"
     id="layer1"><path
       id="path991"
       mask="url(#mask2878)"
       style="fill:url(#linearGradient999);stroke-width:63.7417;stroke-linecap:round;stroke-linejoin:round"
       class="UnoptimicedTransforms"
       transform="matrix(0.83333333,0,0,0.83333333,3.9999985,4.0000001)"
       d="M 48.000004,24 A 24.000002,24 0 0 1 24.000002,48 24.000002,24 0 0 1 0,24 24.000002,24 0 0 1 24.000002,0 24.000002,24 0 0 1 48.000004,24 Z" /></g></svg>
