<?xml version="1.0" encoding="UTF-8" standalone="no"?>
<!-- Created with Inkscape (http://www.inkscape.org/) -->

<svg
   id="SVGRoot"
   width="48px"
   height="48px"
   version="1.1"
   viewBox="0 0 48 48"
   xml:space="preserve"
   sodipodi:docname="a4m-icon-v1-opt.svg"
   inkscape:version="1.2.2 (b0a8486541, 2022-12-01)"
   xmlns:inkscape="http://www.inkscape.org/namespaces/inkscape"
   xmlns:sodipodi="http://sodipodi.sourceforge.net/DTD/sodipodi-0.dtd"
   xmlns:xlink="http://www.w3.org/1999/xlink"
   xmlns="http://www.w3.org/2000/svg"
   xmlns:svg="http://www.w3.org/2000/svg"><sodipodi:namedview
     id="namedview21"
     pagecolor="#ffffff"
     bordercolor="#000000"
     borderopacity="0.25"
     inkscape:showpageshadow="2"
     inkscape:pageopacity="0.0"
     inkscape:pagecheckerboard="0"
     inkscape:deskcolor="#d1d1d1"
     showgrid="false"
     inkscape:zoom="9.0416666"
     inkscape:cx="29.474654"
     inkscape:cy="36"
     inkscape:window-width="1920"
     inkscape:window-height="1019"
     inkscape:window-x="0"
     inkscape:window-y="27"
     inkscape:window-maximized="1"
     inkscape:current-layer="layer1" /><defs
     id="defs16"><linearGradient
       id="linearGradient876"
       x1="10.431"
       x2="156.67"
       y1="107.62"
       y2="107.62"
       gradientTransform="translate(-5.7716e-6)"
       gradientUnits="userSpaceOnUse"><stop
         stop-color="#e25563"
         offset=".153"
         id="stop2" /><stop
         stop-color="#4ab563"
         offset=".85893"
         id="stop4" /></linearGradient><linearGradient
       inkscape:collect="always"
       xlink:href="#linearGradient876"
       id="linearGradient937"
       x1="10.431"
       y1="107.619"
       x2="156.67101"
       y2="107.619"
       gradientUnits="userSpaceOnUse"
       gradientTransform="matrix(0.32822756,0,0,0.32822756,-3.4237423,-11.323522)" /><mask
       maskUnits="userSpaceOnUse"
       id="mask578"><g
         id="g586"><path
           d="M 3.8726151,10.92676 A 23.999474,23.999474 0 0 1 24.102172,0 23.999474,23.999474 0 0 1 44.23773,11.098757 L 24.000174,23.998474 Z"
           fill="#ffffff"
           id="path580"
           style="stroke-width:0.999978" /><path
           class="UnoptimicedTransforms"
           d="M 9,46 C 9,33 9,23 2,8 24,30 39,30 39,30 M 9,30 c 0,0 15,0 37,-22 -7,15 -7,25 -7,38"
           fill="none"
           stroke="#000000"
           stroke-linecap="round"
           stroke-linejoin="round"
           stroke-width="15"
           id="path582"
           transform="scale(0.99997808)" /><path
           class="UnoptimicedTransforms"
           d="M 9,46 C 9,33 9,23 2,8 24,30 39,30 39,30 M 9,30 c 0,0 15,0 37,-22 -7,15 -7,25 -7,38"
           fill="none"
           stroke="#ffffff"
           stroke-linecap="round"
           stroke-linejoin="round"
           stroke-width="6"
           id="path584"
           transform="scale(0.99997808)" /></g></mask></defs><g
     inkscape:groupmode="layer"
     id="layer1"
     inkscape:label="Layer 1"><rect
       x="-7.1525574e-07"
       y="9.0432877e-07"
       width="48"
       height="48"
       rx="23.999342"
       ry="23.999342"
       fill="url(#linearGradient876)"
       mask="url(#mask578)"
       id="rect18"
       style="fill:url(#linearGradient937);fill-opacity:1;stroke-width:0.328228" /></g></svg>
