<svg xmlns="http://www.w3.org/2000/svg" xml:space="preserve" viewBox="0 0 48 48"><defs><linearGradient id="a" x1="-4.8" x2="52.8" y1="24" y2="24" gradientUnits="userSpaceOnUse"><stop offset=".252" stop-color="#975cf6"/><stop offset=".75" stop-color="#3cb1c3"/></linearGradient><mask id="b" maskUnits="userSpaceOnUse"><path fill="none" stroke="#fff" stroke-linecap="round" stroke-linejoin="round" stroke-width="6" d="M34.8 49.2c0-8.4 6-33.6 12-42C33.6 21.6 24 24 24 24c10.8 6 25.2 6 25.2 6m-36 19.2c0-8.4-6-33.6-12-42C14.4 21.6 24 24 24 24c-10.8 6-25.2 6-25.2 6" class="UnoptimicedTransforms"/></mask></defs><rect width="48" height="48" fill="#09182b" ry="12"/><path fill="url(#a)" d="M48 24c0 13.3-10.7 24-24 24S0 37.3 0 24 10.7 0 24 0s24 10.7 24 24z" class="UnoptimicedTransforms" mask="url(#b)" transform="matrix(.833 0 0 .833 4 4)"/></svg>